<?xml version="1.0" encoding="utf-8"?>
<!-- Generator: Adobe Illustrator 24.1.2, SVG Export Plug-In . SVG Version: 6.00 Build 0)  -->
<svg version="1.1" id="Layer_1" xmlns:serif="http://www.serif.com/"
	 xmlns="http://www.w3.org/2000/svg" xmlns:xlink="http://www.w3.org/1999/xlink" x="0px" y="0px" viewBox="0 0 484.5 489.8"
	 style="enable-background:new 0 0 484.5 489.8;" xml:space="preserve">
<style type="text/css">
	.st0{display:none;fill:none;}
	.st1{fill-rule:evenodd;clip-rule:evenodd;fill:#F3F3F3;}
	.st2{fill-rule:evenodd;clip-rule:evenodd;fill:#00A82D;}
</style>
<rect id="Artboard1" x="-63.8" y="-61.1" class="st0" width="612" height="612"/>
<g>
	<g>
		<path class="st1" d="M38.7,373.6C14.2,335.8,0,290.6,0,242.3C0,108.6,108.6,0,242.3,0s242.3,108.6,242.3,242.3
			S375.9,484.5,242.3,484.5c-45.3,0-87.7-12.5-124-34.1L0,489.8L38.7,373.6L38.7,373.6z"/>
		<path class="st2" d="M84,354.6c-22.6-31.7-35.9-70.5-35.9-112.4c0-107.1,87-194.1,194.1-194.1s194.1,87,194.1,194.1
			s-87,194.1-194.1,194.1c-40.5,0-78.2-12.4-109.3-33.7l-73,24.3L84,354.6z"/>
	</g>
	<path class="st1" d="M184,292.6c-28.7-35-47.8-77.9-53.8-124.4c-1.6-13,2.7-26,11.8-35.4c9.1-9.4,21.9-14.2,34.9-13.1l1.2,0.1
		c0,0,14.3,3.8,22.1,5.9c3.1,0.8,5.6,3.2,6.6,6.2c3.5,10.5,11.8,35,15.8,46.6c1.3,3.7,0.1,7.9-2.9,10.5c-5.9,5-15.8,13.3-21.9,18.4
		c-3.3,2.8-4.3,7.4-2.6,11.3c7.1,15.5,16.2,30,27,43.1c11.1,12.8,23.8,24.2,37.9,33.8c3.6,2.4,8.3,2.2,11.6-0.6
		c6.1-5.2,16-13.4,21.9-18.4c3-2.6,7.3-3,10.8-1.1c10.7,5.8,33.5,18.2,43.2,23.4c2.8,1.5,4.7,4.4,5,7.6c0.7,8.1,2.1,22.8,2.1,22.8
		l-0.1,1.2c-1.1,13-8,24.8-18.8,32.2c-10.8,7.3-24.4,9.4-36.8,5.6c-45.2-13.9-84.5-40.3-114.2-74.9L184,292.6L184,292.6z"/>
</g>
</svg>
