<?xml version="1.0" encoding="utf-8"?>
<!-- Generator: Adobe Illustrator 24.1.2, SVG Export Plug-In . SVG Version: 6.00 Build 0)  -->
<svg version="1.1" id="Logotype" xmlns="http://www.w3.org/2000/svg" xmlns:xlink="http://www.w3.org/1999/xlink" x="0px" y="0px"
	 viewBox="0 0 1733.8 1667" style="enable-background:new 0 0 1733.8 1667;" xml:space="preserve">
<style type="text/css">
	.st0{display:none;}
	.st1{font-family:'ArialMT';}
	.st2{font-size:1046.7148px;}
	.st3{letter-spacing:-37;}
	.st4{display:inline;}
	.st5{fill:#FFFFFF;}
	.st6{display:inline;fill:#FFFFFF;}
</style>
<rect y="0" class="st0" width="1733.8" height="1665.1"/>
<g transform="matrix(18.6046511627907, 0, 0, 18.6046511627907, 400, 400)">
	<g>
		<g>
			<g transform="matrix(2.3442052496674344, 0, 0, 2.3442052496674344, 50.123568346257414, 64.55669835501769)">
				<text transform="matrix(2.292888e-02 0 0 2.292888e-02 -26.0758 -9.1721)" class="st1 st2 st3">АС</text>
			</g>
			<g transform="matrix(0.9244589727783006, 0, 0, 0.9244589727783006, 37.7274666623406, 131.57127445572823)" class="st0">
				
					<text transform="matrix(5.814212e-02 0 0 5.814212e-02 -66.1225 -23.2574)" class="st4 st1" style="font-size:412.7817px; letter-spacing:39;">ИСК АС</text>
			</g>
			<g>
				<rect x="-21.5" y="-21.5" width="3.6" height="89.6"/>
			</g>
			<g>
				<rect x="68.1" y="-21.5" width="3.6" height="89.6"/>
			</g>
			<g>
				<rect x="-17.9" y="-21.5" width="89.6" height="3.6"/>
			</g>
			<g>
				<rect x="-21.5" y="64.4" width="89.6" height="3.6"/>
			</g>
			<g class="st0">
				<rect x="-21.9" y="120.1" class="st4" width="90.9" height="1.4"/>
			</g>
		</g>
	</g>
	<g>
		<g>
			<g transform="matrix(2.3442052496674344, 0, 0, 2.3442052496674344, 50.123568346257414, 64.55669835501769)">
				<text transform="matrix(2.292888e-02 0 0 2.292888e-02 -26.0758 -9.1721)" class="st5 st1 st2 st3">АС</text>
			</g>
			<g transform="matrix(0.9244589727783006, 0, 0, 0.9244589727783006, 37.7274666623406, 131.57127445572823)" class="st0">
				
					<text transform="matrix(5.814212e-02 0 0 5.814212e-02 -66.1225 -23.2574)" class="st6 st1" style="font-size:412.7817px; letter-spacing:39;">ИСК АС</text>
			</g>
			<g>
				<rect x="-21.5" y="-21.5" class="st5" width="3.6" height="89.6"/>
			</g>
			<g>
				<rect x="68.1" y="-21.5" class="st5" width="3.6" height="89.6"/>
			</g>
			<g>
				<rect x="-17.9" y="-21.5" class="st5" width="89.6" height="3.6"/>
			</g>
			<g>
				<rect x="-21.5" y="64.4" class="st5" width="89.6" height="3.6"/>
			</g>
			<g class="st0">
				<rect x="-21.9" y="120.1" class="st6" width="90.9" height="1.4"/>
			</g>
		</g>
	</g>
</g>
</svg>
