<?xml version="1.0" encoding="utf-8"?>
<!-- Generator: Adobe Illustrator 24.1.2, SVG Export Plug-In . SVG Version: 6.00 Build 0)  -->
<svg version="1.1" id="Logotype" xmlns="http://www.w3.org/2000/svg" xmlns:xlink="http://www.w3.org/1999/xlink" x="0px" y="0px"
	 viewBox="0 0 1769.1 2660.5" style="enable-background:new 0 0 1769.1 2660.5;" xml:space="preserve">
<style type="text/css">
	.st0{fill:#333333;}
	.st1{fill:#FFFFFF;}
	.st2{font-family:'MyriadPro-Regular';}
	.st3{font-size:1046.7148px;}
	.st4{letter-spacing:-38;}
	.st5{font-size:412.7817px;}
	.st6{letter-spacing:40;}
</style>
<rect id="background" x="-1101.9" y="-400" class="st0" width="4000" height="3326"/>
<g transform="matrix(18.6046511627907, 0, 0, 18.6046511627907, 400, 400)">
	<g>
		<g transform="matrix(2.3442052496674344, 0, 0, 2.3442052496674344, 50.123568346257414, 64.55669835501769)">
			<text transform="matrix(2.292888e-02 0 0 2.292888e-02 -25.2653 -9.1721)" class="st1 st2 st3 st4">АС</text>
		</g>
		<g transform="matrix(0.9244589727783006, 0, 0, 0.9244589727783006, 37.7274666623406, 131.57127445572823)">
			<text transform="matrix(5.814212e-02 0 0 5.814212e-02 -64.0672 -23.2574)" class="st1 st2 st5 st6">ИСК АС</text>
		</g>
		<g>
			<rect x="-19.6" y="-21.5" class="st1" width="3.6" height="89.6"/>
		</g>
		<g>
			<rect x="70" y="-21.5" class="st1" width="3.6" height="89.6"/>
		</g>
		<g>
			<rect x="-16" y="-21.5" class="st1" width="89.6" height="3.6"/>
		</g>
		<g>
			<rect x="-19.6" y="64.4" class="st1" width="89.6" height="3.6"/>
		</g>
		<g>
			<rect x="-20" y="120.1" class="st1" width="90.9" height="1.4"/>
		</g>
	</g>
</g>
</svg>
