<svg width="8.000000" height="16.000000" viewBox="0 0 8 16" fill="none" xmlns="http://www.w3.org/2000/svg" xmlns:xlink="http://www.w3.org/1999/xlink">
	<desc>
			Created with Pixso.
	</desc>
	<defs/>
	<path id="Vector" d="M8 4C8 1.79 6.2 0 4 0C1.79 0 0 1.79 0 4C0 5.97 1.44 7.62 3.33 7.94L3.33 15.33C3.33 15.7 3.63 16 4 16C4.36 16 4.66 15.7 4.66 15.33L4.66 7.94C6.55 7.62 8 5.97 8 4ZM4 6.66C2.52 6.66 1.33 5.47 1.33 4C1.33 2.52 2.52 1.33 4 1.33C5.47 1.33 6.66 2.52 6.66 4C6.66 5.47 5.47 6.66 4 6.66Z" fill="#FB5B11" fill-opacity="1.000000" fill-rule="evenodd"/>
</svg>
