<svg width="12.000000" height="11.000000" viewBox="0 0 12 11" fill="none" xmlns="http://www.w3.org/2000/svg" xmlns:xlink="http://www.w3.org/1999/xlink">
	<desc>
			Created with Pixso.
	</desc>
	<defs/>
	<path id="Vector" d="M9.5 0L2.5 0C1.83 0 1.2 0.26 0.73 0.73C0.26 1.2 0 1.83 0 2.5L0 8.5C0 9.16 0.26 9.79 0.73 10.26C1.2 10.73 1.83 10.99 2.5 11L9.5 11C10.16 10.99 10.79 10.73 11.26 10.26C11.73 9.79 11.99 9.16 12 8.5L12 2.5C11.99 1.83 11.73 1.2 11.26 0.73C10.79 0.26 10.16 0 9.5 0ZM2.5 1L9.5 1C9.79 1 10.09 1.09 10.33 1.25C10.58 1.42 10.77 1.66 10.88 1.94L7.06 5.77C6.77 6.05 6.39 6.21 6 6.21C5.6 6.21 5.22 6.05 4.93 5.77L1.11 1.94C1.22 1.66 1.41 1.42 1.66 1.25C1.9 1.09 2.2 1 2.5 1ZM9.5 10L2.5 10C2.1 10 1.72 9.84 1.43 9.56C1.15 9.27 1 8.89 1 8.5L1 3.25L4.23 6.47C4.7 6.94 5.33 7.21 6 7.21C6.66 7.21 7.29 6.94 7.76 6.47L11 3.25L11 8.5C11 8.89 10.84 9.27 10.56 9.56C10.27 9.84 9.89 10 9.5 10Z" fill="#FB5B11" fill-opacity="1.000000" fill-rule="evenodd"/>
</svg>
