<svg width="12.000000" height="12.000000" viewBox="0 0 12 12" fill="none" xmlns="http://www.w3.org/2000/svg" xmlns:xlink="http://www.w3.org/1999/xlink">
	<defs/>
	<path id="Vector" d="M6 12C2.69 12 0 9.3 0 6C0 2.69 2.69 0 6 0C9.3 0 12 2.69 12 6C12 9.3 9.3 12 6 12ZM6 1C3.24 1 1 3.24 1 6C1 8.75 3.24 11 6 11C8.75 11 11 8.75 11 6C11 3.24 8.75 1 6 1ZM8.5 6C8.5 5.72 8.27 5.5 8 5.5L6.5 5.5L6.5 3C6.5 2.72 6.27 2.5 6 2.5C5.72 2.5 5.5 2.72 5.5 3L5.5 6C5.5 6.27 5.72 6.5 6 6.5L8 6.5C8.27 6.5 8.5 6.27 8.5 6Z" fill="#FB5B11" fill-opacity="1.000000" fill-rule="evenodd"/>
</svg>
